<?xml version="1.0" encoding="UTF-8"?>
<svg width="12" height="12" viewBox="0 0 12 12" version="1.1" xmlns="http://www.w3.org/2000/svg">
  <path
      d="M 4.4659119,0.2033901 C 2.0855869,0.63678064 1.422397,1.5046564 1.422397,2.886083 c 0,0.2031506 0.037795,0.7037188 0.037795,0.9339586 0,0.9887735 -0.3845329,1.3361597 -1.2631581,1.3781848 v 1.6057153 c 0.8786252,0.042025 1.2631581,0.3872449 1.2631581,1.3760178 0,0.2302399 -0.037795,0.7329748 -0.037795,0.9361256 0,1.3814269 0.6631899,2.2471999 3.0435149,2.6805249 L 4.8160157,10.429261 C 3.4372481,10.022959 3.2306028,9.643185 3.2306028,8.8170451 c 0,-0.2708681 0.037795,-0.7167288 0.037795,-1.0011345 1e-7,-0.9886628 -0.481188,-1.5179531 -1.3526732,-1.81591 0.8714852,-0.2979568 1.3526733,-0.8250795 1.3526733,-1.8137432 0,-0.2844055 -0.037795,-0.7324337 -0.037795,-1.0033012 0,-0.8261404 0.2066449,-1.205915 1.5854129,-1.6122161 z"
      fill="#afb1b3"
  />
  <path
      d="m 7.534088,11.79661 c 2.380325,-0.433391 3.043515,-1.301266 3.043515,-2.6826928 0,-0.2031506 -0.03779,-0.7037188 -0.03779,-0.9339586 0,-0.9887735 0.384533,-1.3361597 1.263158,-1.3781848 V 5.1960585 c -0.878625,-0.042025 -1.263158,-0.3872449 -1.263158,-1.3760178 0,-0.2302399 0.03779,-0.7329748 0.03779,-0.9361256 0,-1.3814271 -0.66319,-2.2472001 -3.043515,-2.6805251 L 7.1839842,1.570739 c 1.3787676,0.406302 1.5854129,0.7860762 1.5854129,1.6122161 0,0.2708681 -0.037795,0.7167288 -0.037795,1.0011345 -10e-8,0.9886628 0.481188,1.5179531 1.3526729,1.81591 -0.8714849,0.2979568 -1.352673,0.8250795 -1.352673,1.8137432 0,0.2844055 0.037795,0.7324337 0.037795,1.0033012 0,0.8261404 -0.2066449,1.205915 -1.5854129,1.612216 z"
      fill="#afb1b3"
  />
</svg>
